<mxfile host="Electron" agent="Mozilla/5.0 (Macintosh; Intel Mac OS X 10_15_7) AppleWebKit/537.36 (KHTML, like Gecko) draw.io/26.0.9 Chrome/128.0.6613.186 Electron/32.2.5 Safari/537.36" version="26.0.9">
  <diagram id="yPxyJZ8AM_hMuL3Unpa9" name="gitflow">
    <mxGraphModel dx="1572" dy="473" grid="1" gridSize="10" guides="1" tooltips="1" connect="1" arrows="1" fold="1" page="1" pageScale="1" pageWidth="850" pageHeight="1100" math="0" shadow="0">
      <root>
        <mxCell id="0" />
        <mxCell id="1" parent="0" />
        <mxCell id="UoJuT--lzHl-K_kP9eIO-224" value="" style="edgeStyle=orthogonalEdgeStyle;shape=connector;curved=1;rounded=0;orthogonalLoop=1;jettySize=auto;html=1;dashed=1;strokeColor=#9673a6;align=center;verticalAlign=middle;fontFamily=Helvetica;fontSize=12;fontColor=default;fontStyle=1;labelBackgroundColor=default;startFill=0;endArrow=none;fillColor=#e1d5e7;exitX=1;exitY=0.5;exitDx=0;exitDy=0;" edge="1" parent="1" source="UoJuT--lzHl-K_kP9eIO-244" target="UoJuT--lzHl-K_kP9eIO-223">
          <mxGeometry relative="1" as="geometry">
            <mxPoint x="10" y="150" as="sourcePoint" />
            <mxPoint x="415" y="150" as="targetPoint" />
          </mxGeometry>
        </mxCell>
        <mxCell id="UoJuT--lzHl-K_kP9eIO-229" value="" style="edgeStyle=orthogonalEdgeStyle;shape=connector;curved=1;rounded=0;orthogonalLoop=1;jettySize=auto;html=1;dashed=1;strokeColor=#d6b656;align=center;verticalAlign=middle;fontFamily=Helvetica;fontSize=12;fontColor=default;fontStyle=1;labelBackgroundColor=default;startFill=0;endArrow=none;fillColor=#fff2cc;exitX=1;exitY=0.36;exitDx=0;exitDy=0;exitPerimeter=0;" edge="1" parent="1">
          <mxGeometry relative="1" as="geometry">
            <mxPoint y="189.8" as="sourcePoint" />
            <mxPoint x="560.3703703703703" y="189" as="targetPoint" />
          </mxGeometry>
        </mxCell>
        <mxCell id="UoJuT--lzHl-K_kP9eIO-230" value="" style="edgeStyle=orthogonalEdgeStyle;shape=connector;curved=1;rounded=0;orthogonalLoop=1;jettySize=auto;html=1;dashed=1;strokeColor=#d6b656;align=center;verticalAlign=middle;fontFamily=Helvetica;fontSize=12;fontColor=default;fontStyle=1;labelBackgroundColor=default;startFill=0;endArrow=none;fillColor=#fff2cc;" edge="1" parent="1">
          <mxGeometry relative="1" as="geometry">
            <mxPoint y="200" as="sourcePoint" />
            <mxPoint x="560" y="200" as="targetPoint" />
          </mxGeometry>
        </mxCell>
        <mxCell id="UoJuT--lzHl-K_kP9eIO-232" value="" style="edgeStyle=orthogonalEdgeStyle;shape=connector;curved=1;rounded=0;orthogonalLoop=1;jettySize=auto;html=1;dashed=1;strokeColor=#6c8ebf;align=center;verticalAlign=middle;fontFamily=Helvetica;fontSize=11;fontColor=default;labelBackgroundColor=default;startFill=0;endArrow=none;fillColor=#dae8fc;exitX=1;exitY=0.5;exitDx=0;exitDy=0;" edge="1" parent="1" source="UoJuT--lzHl-K_kP9eIO-242" target="UoJuT--lzHl-K_kP9eIO-231">
          <mxGeometry relative="1" as="geometry">
            <mxPoint x="10" y="70" as="sourcePoint" />
            <mxPoint x="490" y="70" as="targetPoint" />
          </mxGeometry>
        </mxCell>
        <mxCell id="UoJuT--lzHl-K_kP9eIO-241" value="" style="edgeStyle=orthogonalEdgeStyle;shape=connector;curved=1;rounded=0;orthogonalLoop=1;jettySize=auto;html=1;dashed=1;strokeColor=#b85450;align=center;verticalAlign=middle;fontFamily=Helvetica;fontSize=12;fontColor=default;fontStyle=1;labelBackgroundColor=default;startFill=0;endArrow=none;fillColor=#f8cecc;exitX=1;exitY=0.5;exitDx=0;exitDy=0;" edge="1" parent="1" source="UoJuT--lzHl-K_kP9eIO-243">
          <mxGeometry relative="1" as="geometry">
            <mxPoint x="10" y="109.7" as="sourcePoint" />
            <mxPoint x="560.3703703703703" y="109.77" as="targetPoint" />
          </mxGeometry>
        </mxCell>
        <mxCell id="UoJuT--lzHl-K_kP9eIO-190" value="" style="edgeStyle=orthogonalEdgeStyle;shape=connector;curved=1;rounded=0;orthogonalLoop=1;jettySize=auto;html=1;dashed=1;strokeColor=light-dark(#6c8ebf, #ededed);align=center;verticalAlign=middle;fontFamily=Helvetica;fontSize=11;fontColor=default;labelBackgroundColor=default;startFill=0;endArrow=none;" edge="1" parent="1" source="UoJuT--lzHl-K_kP9eIO-231" target="UoJuT--lzHl-K_kP9eIO-189">
          <mxGeometry relative="1" as="geometry">
            <mxPoint x="10" y="70" as="sourcePoint" />
          </mxGeometry>
        </mxCell>
        <mxCell id="UoJuT--lzHl-K_kP9eIO-195" style="edgeStyle=orthogonalEdgeStyle;shape=connector;curved=1;rounded=0;orthogonalLoop=1;jettySize=auto;html=1;entryX=0;entryY=0.5;entryDx=0;entryDy=0;strokeColor=light-dark(#000000,#EDEDED);align=center;verticalAlign=middle;fontFamily=Helvetica;fontSize=12;fontColor=default;fontStyle=1;labelBackgroundColor=default;startFill=0;endArrow=classicThin;endFill=1;" edge="1" parent="1" source="4" target="UoJuT--lzHl-K_kP9eIO-191">
          <mxGeometry relative="1" as="geometry">
            <Array as="points">
              <mxPoint x="40" y="150" />
            </Array>
          </mxGeometry>
        </mxCell>
        <mxCell id="4" value="1.0" style="ellipse;whiteSpace=wrap;html=1;aspect=fixed;fillColor=#dae8fc;strokeColor=#6c8ebf;fontStyle=1;labelPosition=center;verticalLabelPosition=top;align=center;verticalAlign=bottom;fontColor=#0066CC;" parent="1" vertex="1">
          <mxGeometry x="30" y="60" width="20" height="20" as="geometry" />
        </mxCell>
        <mxCell id="UoJuT--lzHl-K_kP9eIO-193" value="" style="edgeStyle=orthogonalEdgeStyle;shape=connector;curved=1;rounded=0;orthogonalLoop=1;jettySize=auto;html=1;dashed=1;strokeColor=light-dark(#6c8ebf, #ededed);align=center;verticalAlign=middle;fontFamily=Helvetica;fontSize=11;fontColor=default;labelBackgroundColor=default;startFill=0;endArrow=none;" edge="1" parent="1" source="UoJuT--lzHl-K_kP9eIO-189">
          <mxGeometry relative="1" as="geometry">
            <mxPoint x="560" y="70" as="targetPoint" />
          </mxGeometry>
        </mxCell>
        <mxCell id="UoJuT--lzHl-K_kP9eIO-189" value="1.1.1" style="ellipse;whiteSpace=wrap;html=1;aspect=fixed;fillColor=#dae8fc;strokeColor=#6c8ebf;fontStyle=1;labelPosition=center;verticalLabelPosition=top;align=center;verticalAlign=bottom;fontColor=#0066CC;" vertex="1" parent="1">
          <mxGeometry x="490" y="60" width="20" height="20" as="geometry" />
        </mxCell>
        <mxCell id="UoJuT--lzHl-K_kP9eIO-197" value="" style="edgeStyle=orthogonalEdgeStyle;shape=connector;curved=1;rounded=0;orthogonalLoop=1;jettySize=auto;html=1;dashed=1;strokeColor=#9673a6;align=center;verticalAlign=middle;fontFamily=Helvetica;fontSize=12;fontColor=default;fontStyle=1;labelBackgroundColor=default;startFill=0;endArrow=none;fillColor=#e1d5e7;" edge="1" parent="1" source="UoJuT--lzHl-K_kP9eIO-226" target="UoJuT--lzHl-K_kP9eIO-196">
          <mxGeometry relative="1" as="geometry" />
        </mxCell>
        <mxCell id="UoJuT--lzHl-K_kP9eIO-219" value="" style="edgeStyle=orthogonalEdgeStyle;shape=connector;curved=1;rounded=0;orthogonalLoop=1;jettySize=auto;html=1;strokeColor=light-dark(#000000,#EDEDED);align=center;verticalAlign=middle;fontFamily=Helvetica;fontSize=12;fontColor=default;fontStyle=1;labelBackgroundColor=default;startFill=0;endArrow=classicThin;endFill=1;" edge="1" parent="1" source="UoJuT--lzHl-K_kP9eIO-191">
          <mxGeometry relative="1" as="geometry">
            <mxPoint x="100" y="200" as="targetPoint" />
            <Array as="points">
              <mxPoint x="80" y="200" />
            </Array>
          </mxGeometry>
        </mxCell>
        <mxCell id="UoJuT--lzHl-K_kP9eIO-191" value="" style="ellipse;whiteSpace=wrap;html=1;aspect=fixed;fillColor=#e1d5e7;strokeColor=#9673a6;fontStyle=1;labelPosition=center;verticalLabelPosition=top;align=center;verticalAlign=bottom;" vertex="1" parent="1">
          <mxGeometry x="70" y="140" width="20" height="20" as="geometry" />
        </mxCell>
        <mxCell id="UoJuT--lzHl-K_kP9eIO-199" value="" style="edgeStyle=orthogonalEdgeStyle;shape=connector;curved=1;rounded=0;orthogonalLoop=1;jettySize=auto;html=1;dashed=1;strokeColor=#9673a6;align=center;verticalAlign=middle;fontFamily=Helvetica;fontSize=12;fontColor=default;fontStyle=1;labelBackgroundColor=default;startFill=0;endArrow=none;fillColor=#e1d5e7;" edge="1" parent="1" source="UoJuT--lzHl-K_kP9eIO-196">
          <mxGeometry relative="1" as="geometry">
            <mxPoint x="560" y="150" as="targetPoint" />
          </mxGeometry>
        </mxCell>
        <mxCell id="UoJuT--lzHl-K_kP9eIO-233" style="edgeStyle=orthogonalEdgeStyle;shape=connector;curved=1;rounded=0;orthogonalLoop=1;jettySize=auto;html=1;entryX=0.5;entryY=1;entryDx=0;entryDy=0;strokeColor=light-dark(#000000,#EDEDED);align=center;verticalAlign=middle;fontFamily=Helvetica;fontSize=12;fontColor=default;fontStyle=1;labelBackgroundColor=default;startFill=0;endArrow=classicThin;endFill=1;" edge="1" parent="1" source="UoJuT--lzHl-K_kP9eIO-196" target="UoJuT--lzHl-K_kP9eIO-231">
          <mxGeometry relative="1" as="geometry" />
        </mxCell>
        <mxCell id="UoJuT--lzHl-K_kP9eIO-196" value="" style="ellipse;whiteSpace=wrap;html=1;aspect=fixed;fillColor=#e1d5e7;strokeColor=#9673a6;fontStyle=1;labelPosition=center;verticalLabelPosition=top;align=center;verticalAlign=bottom;" vertex="1" parent="1">
          <mxGeometry x="310" y="140" width="20" height="20" as="geometry" />
        </mxCell>
        <mxCell id="UoJuT--lzHl-K_kP9eIO-220" value="" style="edgeStyle=orthogonalEdgeStyle;shape=connector;curved=1;rounded=0;orthogonalLoop=1;jettySize=auto;html=1;strokeColor=light-dark(#000000,#EDEDED);align=center;verticalAlign=middle;fontFamily=Helvetica;fontSize=12;fontColor=default;fontStyle=1;labelBackgroundColor=default;startFill=0;endArrow=classicThin;entryX=0;entryY=0.5;entryDx=0;entryDy=0;endFill=1;" edge="1" parent="1" target="UoJuT--lzHl-K_kP9eIO-200">
          <mxGeometry relative="1" as="geometry">
            <mxPoint x="80" y="170" as="sourcePoint" />
            <mxPoint x="90" y="230" as="targetPoint" />
            <Array as="points">
              <mxPoint x="80" y="190" />
            </Array>
          </mxGeometry>
        </mxCell>
        <mxCell id="UoJuT--lzHl-K_kP9eIO-223" value="" style="ellipse;whiteSpace=wrap;html=1;aspect=fixed;fillColor=#e1d5e7;strokeColor=#9673a6;fontStyle=1;labelPosition=center;verticalLabelPosition=top;align=center;verticalAlign=bottom;" vertex="1" parent="1">
          <mxGeometry x="210" y="140" width="20" height="20" as="geometry" />
        </mxCell>
        <mxCell id="UoJuT--lzHl-K_kP9eIO-225" style="edgeStyle=orthogonalEdgeStyle;shape=connector;curved=1;rounded=0;orthogonalLoop=1;jettySize=auto;html=1;entryX=0.5;entryY=1.094;entryDx=0;entryDy=0;entryPerimeter=0;strokeColor=light-dark(#000000,#EDEDED);align=center;verticalAlign=middle;fontFamily=Helvetica;fontSize=12;fontColor=default;fontStyle=1;labelBackgroundColor=default;startFill=0;endArrow=classicThin;endFill=1;" edge="1" parent="1" source="UoJuT--lzHl-K_kP9eIO-205" target="UoJuT--lzHl-K_kP9eIO-223">
          <mxGeometry relative="1" as="geometry" />
        </mxCell>
        <mxCell id="UoJuT--lzHl-K_kP9eIO-227" style="edgeStyle=orthogonalEdgeStyle;shape=connector;curved=1;rounded=0;orthogonalLoop=1;jettySize=auto;html=1;entryX=0.5;entryY=1;entryDx=0;entryDy=0;strokeColor=light-dark(#000000,#EDEDED);align=center;verticalAlign=middle;fontFamily=Helvetica;fontSize=12;fontColor=default;fontStyle=1;labelBackgroundColor=default;startFill=0;endArrow=classicThin;endFill=1;" edge="1" parent="1" source="UoJuT--lzHl-K_kP9eIO-215" target="UoJuT--lzHl-K_kP9eIO-226">
          <mxGeometry relative="1" as="geometry" />
        </mxCell>
        <mxCell id="UoJuT--lzHl-K_kP9eIO-228" value="" style="edgeStyle=orthogonalEdgeStyle;shape=connector;curved=1;rounded=0;orthogonalLoop=1;jettySize=auto;html=1;dashed=1;strokeColor=#9673a6;align=center;verticalAlign=middle;fontFamily=Helvetica;fontSize=12;fontColor=default;fontStyle=1;labelBackgroundColor=default;startFill=0;endArrow=none;fillColor=#e1d5e7;" edge="1" parent="1" source="UoJuT--lzHl-K_kP9eIO-223" target="UoJuT--lzHl-K_kP9eIO-226">
          <mxGeometry relative="1" as="geometry">
            <mxPoint x="230" y="150" as="sourcePoint" />
            <mxPoint x="415" y="150" as="targetPoint" />
          </mxGeometry>
        </mxCell>
        <mxCell id="UoJuT--lzHl-K_kP9eIO-226" value="" style="ellipse;whiteSpace=wrap;html=1;aspect=fixed;fillColor=#e1d5e7;strokeColor=#9673a6;fontStyle=1;labelPosition=center;verticalLabelPosition=top;align=center;verticalAlign=bottom;" vertex="1" parent="1">
          <mxGeometry x="260" y="140" width="20" height="20" as="geometry" />
        </mxCell>
        <mxCell id="UoJuT--lzHl-K_kP9eIO-235" style="edgeStyle=orthogonalEdgeStyle;shape=connector;curved=1;rounded=0;orthogonalLoop=1;jettySize=auto;html=1;entryX=0;entryY=0.5;entryDx=0;entryDy=0;strokeColor=light-dark(#000000,#EDEDED);align=center;verticalAlign=middle;fontFamily=Helvetica;fontSize=12;fontColor=default;fontStyle=1;labelBackgroundColor=default;startFill=0;endArrow=classicThin;endFill=1;" edge="1" parent="1" source="UoJuT--lzHl-K_kP9eIO-231" target="UoJuT--lzHl-K_kP9eIO-234">
          <mxGeometry relative="1" as="geometry">
            <Array as="points">
              <mxPoint x="390" y="70" />
              <mxPoint x="390" y="110" />
            </Array>
          </mxGeometry>
        </mxCell>
        <mxCell id="UoJuT--lzHl-K_kP9eIO-231" value="1.1" style="ellipse;whiteSpace=wrap;html=1;aspect=fixed;fillColor=#dae8fc;strokeColor=#6c8ebf;fontStyle=1;labelPosition=center;verticalLabelPosition=top;align=center;verticalAlign=bottom;fontColor=#0066CC;" vertex="1" parent="1">
          <mxGeometry x="360" y="60" width="20" height="20" as="geometry" />
        </mxCell>
        <mxCell id="UoJuT--lzHl-K_kP9eIO-239" value="" style="edgeStyle=orthogonalEdgeStyle;shape=connector;curved=1;rounded=0;orthogonalLoop=1;jettySize=auto;html=1;dashed=1;strokeColor=#b85450;align=center;verticalAlign=middle;fontFamily=Helvetica;fontSize=12;fontColor=default;fontStyle=1;labelBackgroundColor=default;startFill=0;endArrow=none;entryX=-0.078;entryY=0.499;entryDx=0;entryDy=0;entryPerimeter=0;fillColor=#f8cecc;" edge="1" parent="1" source="UoJuT--lzHl-K_kP9eIO-234" target="UoJuT--lzHl-K_kP9eIO-238">
          <mxGeometry relative="1" as="geometry" />
        </mxCell>
        <mxCell id="UoJuT--lzHl-K_kP9eIO-234" value="" style="ellipse;whiteSpace=wrap;html=1;aspect=fixed;fillColor=#f8cecc;strokeColor=#b85450;fontStyle=1;labelPosition=center;verticalLabelPosition=top;align=center;verticalAlign=bottom;" vertex="1" parent="1">
          <mxGeometry x="415" y="100" width="20" height="20" as="geometry" />
        </mxCell>
        <mxCell id="UoJuT--lzHl-K_kP9eIO-240" style="edgeStyle=orthogonalEdgeStyle;shape=connector;curved=1;rounded=0;orthogonalLoop=1;jettySize=auto;html=1;entryX=0.5;entryY=1;entryDx=0;entryDy=0;strokeColor=light-dark(#000000,#EDEDED);align=center;verticalAlign=middle;fontFamily=Helvetica;fontSize=12;fontColor=default;fontStyle=1;labelBackgroundColor=default;startFill=0;endArrow=classicThin;endFill=1;" edge="1" parent="1" source="UoJuT--lzHl-K_kP9eIO-238" target="UoJuT--lzHl-K_kP9eIO-189">
          <mxGeometry relative="1" as="geometry" />
        </mxCell>
        <mxCell id="UoJuT--lzHl-K_kP9eIO-238" value="" style="ellipse;whiteSpace=wrap;html=1;aspect=fixed;fillColor=#f8cecc;strokeColor=#b85450;fontStyle=1;labelPosition=center;verticalLabelPosition=top;align=center;verticalAlign=bottom;" vertex="1" parent="1">
          <mxGeometry x="450" y="100" width="20" height="20" as="geometry" />
        </mxCell>
        <mxCell id="UoJuT--lzHl-K_kP9eIO-242" value="main" style="rounded=0;whiteSpace=wrap;html=1;strokeColor=#6c8ebf;align=center;verticalAlign=bottom;fontFamily=Helvetica;fontSize=12;fontStyle=1;fillColor=#dae8fc;" vertex="1" parent="1">
          <mxGeometry x="-50" y="60" width="50" height="20" as="geometry" />
        </mxCell>
        <mxCell id="UoJuT--lzHl-K_kP9eIO-243" value="hotfix" style="rounded=0;whiteSpace=wrap;html=1;strokeColor=#b85450;align=center;verticalAlign=bottom;fontFamily=Helvetica;fontSize=12;fontStyle=1;fillColor=#f8cecc;" vertex="1" parent="1">
          <mxGeometry x="-50" y="100" width="50" height="20" as="geometry" />
        </mxCell>
        <mxCell id="UoJuT--lzHl-K_kP9eIO-244" value="dev" style="rounded=0;whiteSpace=wrap;html=1;strokeColor=#9673a6;align=center;verticalAlign=bottom;fontFamily=Helvetica;fontSize=12;fontStyle=1;fillColor=#e1d5e7;" vertex="1" parent="1">
          <mxGeometry x="-50" y="140" width="50" height="20" as="geometry" />
        </mxCell>
        <mxCell id="UoJuT--lzHl-K_kP9eIO-245" value="feature" style="rounded=0;whiteSpace=wrap;html=1;strokeColor=#d6b656;align=center;verticalAlign=middle;fontFamily=Helvetica;fontSize=12;fontStyle=1;fillColor=#fff2cc;" vertex="1" parent="1">
          <mxGeometry x="-50" y="180" width="50" height="30" as="geometry" />
        </mxCell>
        <mxCell id="UoJuT--lzHl-K_kP9eIO-201" value="" style="ellipse;whiteSpace=wrap;html=1;aspect=fixed;fillColor=#fff2cc;strokeColor=#d6b656;fontStyle=1;labelPosition=center;verticalLabelPosition=top;align=center;verticalAlign=bottom;" vertex="1" parent="1">
          <mxGeometry x="100" y="190" width="20" height="20" as="geometry" />
        </mxCell>
        <mxCell id="UoJuT--lzHl-K_kP9eIO-211" value="" style="ellipse;whiteSpace=wrap;html=1;aspect=fixed;fillColor=#fff2cc;strokeColor=#d6b656;fontStyle=1;labelPosition=center;verticalLabelPosition=top;align=center;verticalAlign=bottom;" vertex="1" parent="1">
          <mxGeometry x="140" y="190" width="20" height="20" as="geometry" />
        </mxCell>
        <mxCell id="UoJuT--lzHl-K_kP9eIO-213" value="" style="ellipse;whiteSpace=wrap;html=1;aspect=fixed;fillColor=#fff2cc;strokeColor=#d6b656;fontStyle=1;labelPosition=center;verticalLabelPosition=top;align=center;verticalAlign=bottom;" vertex="1" parent="1">
          <mxGeometry x="180" y="190" width="20" height="20" as="geometry" />
        </mxCell>
        <mxCell id="UoJuT--lzHl-K_kP9eIO-215" value="" style="ellipse;whiteSpace=wrap;html=1;aspect=fixed;fillColor=#fff2cc;strokeColor=#d6b656;fontStyle=1;labelPosition=center;verticalLabelPosition=top;align=center;verticalAlign=bottom;" vertex="1" parent="1">
          <mxGeometry x="220" y="190" width="20" height="20" as="geometry" />
        </mxCell>
        <mxCell id="UoJuT--lzHl-K_kP9eIO-200" value="" style="ellipse;whiteSpace=wrap;html=1;aspect=fixed;fillColor=#fff2cc;strokeColor=#d6b656;fontStyle=1;labelPosition=center;verticalLabelPosition=top;align=center;verticalAlign=bottom;" vertex="1" parent="1">
          <mxGeometry x="100" y="180" width="20" height="20" as="geometry" />
        </mxCell>
        <mxCell id="UoJuT--lzHl-K_kP9eIO-203" value="" style="ellipse;whiteSpace=wrap;html=1;aspect=fixed;fillColor=#fff2cc;strokeColor=#d6b656;fontStyle=1;labelPosition=center;verticalLabelPosition=top;align=center;verticalAlign=bottom;" vertex="1" parent="1">
          <mxGeometry x="140" y="180" width="20" height="20" as="geometry" />
        </mxCell>
        <mxCell id="UoJuT--lzHl-K_kP9eIO-205" value="" style="ellipse;whiteSpace=wrap;html=1;aspect=fixed;fillColor=#fff2cc;strokeColor=#d6b656;fontStyle=1;labelPosition=center;verticalLabelPosition=top;align=center;verticalAlign=bottom;" vertex="1" parent="1">
          <mxGeometry x="180" y="180" width="20" height="20" as="geometry" />
        </mxCell>
      </root>
    </mxGraphModel>
  </diagram>
</mxfile>
